<svg xmlns="http://www.w3.org/2000/svg" viewBox="0 0 100 600">
  <path fill="#BB383F" d="M40.7 526.5l-.2 3.4.9-.3-.7-3.1zm27.9 7c2.4 2.2 3.6 5.4 3.6 9.6 0 4.4-1.5 7.7-4.4 10.2-2.9 2.4-8.4 3.6-16.3 3.6-5.5 0-9.7-.8-12.7-2.2L37.2 577c4.2 1.3 9.1 2 14.4 2 8.9 0 16.2-1.8 21.9-5.4 5.7-3.6 9.7-7.8 11.9-12.8s3.4-11.3 3.4-19.1c0-6.4-.9-11.7-2.8-15.8s-4.6-7.6-8.3-10.4c-3.6-2.8-8.2-4.8-13.6-6.2l-5.9 19.4c4.6 1 8.1 2.6 10.4 4.8zm-6.2-91.8c-1.9 1.5-3.2 2.7-3.8 3.5-.9 1.2-1.8 3.1-2.6 5.8-.7-3.3-1.7-5.9-2.8-7.8-1.6-2.7-3.7-4.8-6.2-6.5l-2.3 29c0 .4-.2.8-.2 1v9.2h-.3l-1.5 22h44.8v-22h-29v-1.8c0-2 .6-3.8 1.7-5.4.8-1.2 2.6-2.5 5.5-4l21.8-11.8v-25l-20.7 10.7c-1 .6-2.5 1.6-4.4 3.1zM56.5 399v-35H52l-3.9 57h39.4v-60h-16v38zM71.6 83h15.9V63H73zm2.6-38.2l13.3-9.3V15H76.4zm-5.3 77.6c2.3 2.5 3.4 5.8 3.4 9.8 0 4.6-1.6 8.3-4.7 11l-.1.1-1.7 24.2c2.5-.8 4.9-1.8 7-3.1 5.6-3.3 9.6-7.6 12.2-12.9 2.6-5.3 3.9-12 3.9-20 0-7.9-1.5-14.6-4.5-19.9s-7.1-9.4-12.5-12.2c-.4-.2-.9-.4-1.3-.6l-1.7 23.6zM63.1 205h24.4v-22H64.7zm-3.8 55h28.2v-22H60.8zm-4 50.6l4.2-1.4v15.7l-5-1.6-1.3 19.7 34.3 12.8v-22.6l-12-3.5v-25.1l12-3.6v-23.1L57 289.3z"/>
  <path fill="#787878" d="M69.7 69H44l27-18.5L73 21H11.5v21h39.9L11.5 68.2V89h56.7zm-5.6 79.1l-.8.8c-3.2 2.7-8.3 4-15.6 4-7.3 0-12.5-1.4-15.7-4.1-3.2-2.7-4.7-6.3-4.7-10.7 0-4.7 1.6-8.3 4.7-11.1 3.1-2.7 8-4.1 14.8-4.1 8 0 13.6 1.3 16.7 3.9.8.7 1.5 1.4 2.1 2.2l1.7-24.2c-5.3-2.7-12-4-20.1-4-11.5 0-20.5 3.2-26.9 9.7s-9.6 15.6-9.6 27.5c0 11.6 3.3 20.7 9.8 27.2 6.5 6.5 15.6 9.8 27.3 9.8 5.6 0 10.5-.7 14.8-2.2l1.5-24.7zM61.3 189H11.5v22h48.3zm-5.4 77l1.5-22H29.5v-22h-18v67h18v-23zm-4.4 63.2l-21.2-6.4 22.1-6.8 1.4-21.4-42.3 15.9v24.1L50 349zM48.7 370H38.5v35h-12v-37h-15v59h33.2zm-5.1 73.1c-.5-.4-1.1-.8-1.7-1.1-2.9-1.7-6.3-2.5-10.3-2.5-4.6 0-8.4 1.1-11.6 3.3-3.2 2.2-5.5 5.1-6.6 8.7s-1.9 8.8-1.9 15.7V504h27.8l4.3-60.9zM26.5 482v-9.9c0-4 .5-6.8 1.7-8.3 1.2-1.5 2.9-2.2 5.2-2.2 1.6 0 2.9.5 4.1 1.4 1.2.9 1.8 2.1 2.1 3.6.7 2.9.8 4.9.8 5.9v9.5H26.5zm8.9 78.7c-.8-.3-1.6-.7-2.2-1.2-4-2.7-6-6.5-6-11.5 0-2.2.5-4.2 1.4-6 .9-1.8 2.2-3.3 3.9-4.5 1-.7 2.6-1.5 4.8-2.1L33 515.9c-7.6 2.5-13.2 6.3-16.8 11.5-3.6 5.2-5.5 12.2-5.5 21.3 0 11.5 3.2 20.4 9.5 26.7 3.7 3.6 8.3 6.2 13.8 7.8l1.4-22.5z"/>
</svg>
