<svg xmlns="http://www.w3.org/2000/svg" viewBox="0 0 230 150">
  <path fill="transparent" stroke-width="0" d="M.5.5h230v150H.5z"/>
  <path fill="#FFF" stroke="#000" strokeMiterlimit="10" d="M137.9 107.2l12-57c6.9-33 8.9-31.2-14.5-36.1L120 10.9C96.6 6 98.2 5 91.2 37.9l-12 57c-.1.3-.1.6-.2.9.7.2 1.4.5 2 .8.6-.2 1.1-.3 1.6-.2 1 .2 1.5 1 1.6 2.1.1.1.3.2.4.4.8-.2 1.5-.2 2.3-.1 1.8.4 1.6 1.9.7 3.6.3.6.7 1.2.9 1.8 2.4.9 2.7 2.6 1 4 .1 1.1.1 2.2 0 3.3 1.8 1.4 2.6 3.6 1.6 5.1-.5.7-1.2 1.1-2.1 1.3.7 1.9.6 3.6-.4 4.4-.4.3-1 .4-1.7.3v.1c1.2.9 1.9 1.9 1.7 2.9-.2.9-1 1.6-2.2 2 .1.6-3.5.5-3.5 1.1 2.3.5 8.7 1.8 11.8 2.5l15.5 3.3c23.7 5 20.6 6.3 27.7-27.3z"/>
  <path fill="#A5FFDF" d="M100.9 18.6L84 98.9c3 .1 4 .5 4.4 1.7.4 1-.1 2.2-1.2 3.3 2 .9 3.2 2.5 3 3.8-.1.9-.8 1.5-2 2.3l41.7 8.8 19-90-48-10.2z"/>
  <path fill="#F2F2F2" stroke="#000" strokeMiterlimit="10" d="M104.2 49.4c-3.7 6.2-4 12.8-.8 14.8 3.3 1.9 8.9-1.5 12.6-7.7 3.7-6.2 4-12.8.8-14.8-3.3-2-8.9 1.5-12.6 7.7z"/>
  <path fill="#F2F2F2" stroke="#000" strokeMiterlimit="10" d="M104.2 49.4c-3.7 6.2-4 12.8-.8 14.8 3.3 1.9 8.9-1.5 12.6-7.7 3.7-6.2 4-12.8.8-14.8-3.3-2-8.9 1.5-12.6 7.7z"/>
  <circle cx="109" cy="55" r="5.2"/>
  <circle cx="110.1" cy="54.8" r="1.5" fill="#F2F2F2"/>
  <path fill="#F2F2F2" stroke="#000" strokeMiterlimit="10" d="M123.7 53.5c-3.7 6.2-4 12.8-.8 14.8 3.3 1.9 8.9-1.5 12.6-7.7 3.7-6.2 4-12.8.8-14.8-3.2-1.9-8.9 1.5-12.6 7.7z"/>
  <path fill="#F2F2F2" stroke="#000" strokeMiterlimit="10" d="M123.7 53.5c-3.7 6.2-4 12.8-.8 14.8 3.3 1.9 8.9-1.5 12.6-7.7 3.7-6.2 4-12.8.8-14.8-3.2-1.9-8.9 1.5-12.6 7.7z"/>
  <circle cx="128.6" cy="59.1" r="5.2"/>
  <circle cx="129.7" cy="58.9" r="1.5" fill="#F2F2F2"/>
  <path fill="none" stroke="#000" strokeMiterlimit="10" stroke-width="3.5392" d="M121.2 27.3c5.6-1 10 1.2 12.1 10.1m9.5-5.5c5.6-1 10 1.2 12.1 10.1"/>
  <circle cx="104.3" cy="123.5" r="5" fill="none" stroke="#000" strokeMiterlimit="10"/>
  <path fill="none" stroke="#000" strokeMiterlimit="10" stroke-width="2" d="M118.5 17.2l14.7 3.1"/>
  <path fill="none" stroke="#000" strokeMiterlimit="10" d="M97.7 82.1c1.3 12.6 11.8 5 21.1 9m1.8-6.3c-1 3.7-1 7.6.2 11.3m-20.5-16.3c-1.2 2.3-3.5 5.1-5.9 7.2"/>
</svg>
