<svg xmlns="http://www.w3.org/2000/svg" width="900" height="100">
  <rect width="901" height="100" x="1" y="1" stroke="#FFF" stroke-miterlimit="10" stroke-width="2"/>
  <linearGradient id="link-A" x1="-46.4902" x2="-46.4902" y1="10.8633" y2="48.9685" gradientTransform="matrix(.8522 -.8599 .6019 .5965 71.5618 3.2425)" gradientUnits="userSpaceOnUse">
    <stop offset="0" stop-color="#1b6066"/>
    <stop offset=".9957" stop-color="#2ea8b3"/>
  </linearGradient>
  <path fill="url(#link-A)" d="M82.7 29.8c6.1 5.7 5.7 15.3-.8 21.4L39.8 91.4c-6.5 6.2-16.7 6.6-22.7.9l-.3-.3c-6.1-5.7-5.7-15.3.8-21.4l42.1-40.1c6.5-6.2 16.7-6.6 22.7-.9l.3.2z"/>
  <linearGradient id="link-B" x1="-22.207" x2="-22.207" y1="11.8828" y2="49.9861" gradientTransform="matrix(.8522 -.8599 .6019 .5965 71.5618 3.2425)" gradientUnits="userSpaceOnUse">
    <stop offset="0" stop-color="#948c5c"/>
    <stop offset=".9957" stop-color="#fcee9c"/>
  </linearGradient>
  <linearGradient id="link-C" x1="-46.4883" x2="-46.4883" y1="8.1455" y2="49.3842" gradientTransform="matrix(.8522 -.8599 .6019 .5965 71.5618 3.2425)" gradientUnits="userSpaceOnUse">
    <stop offset="0" stop-color="#1b6066"/>
    <stop offset=".9957" stop-color="#2ea8b3"/>
  </linearGradient>
  <path fill="url(#link-B)" d="M81 10.2L38.9 50.3c-6.5 6.2-6.8 15.8-.8 21.4l.3.3c6.1 5.7 16.2 5.3 22.7-.9L103.3 31c6.5-6.2 6.8-15.8.8-21.4l-.3-.3C97.7 3.6 87.5 4 81 10.2zm3.1 20.9L61.1 53l-3-2.8 23-21.9 3 2.8z"/>
  <path fill="url(#link-C)" d="M82.3 29.4l-23 21.9 1.8 1.7-21.3 20.3-1.8-1.7-21.3 20.2.1.1.3.3c6.1 5.7 16.2 5.3 22.7-.9l42.2-40c6.5-6.2 6.8-15.8.8-21.4l-.3-.3-.2-.2z"/>
  <rect width="405" height="63.8" x="142" y="21" fill="none"/>
  <text fill="#FFF" font-family="'Montserrat-Regular'" font-size="73" transform="translate(152.7676 75.165)">
    CODEPEN
  </text>
  <rect width="261" height="63.8" x="587" y="22.2" fill="none"/>
  <text fill="#FFF" font-family="'Montserrat-Regular'" font-size="73" transform="translate(590.6279 76.3467)">
    Github
  </text>
</svg>
