<svg xmlns="http://www.w3.org/2000/svg" viewBox="0 0 100 100">
  <rect x="1" y="1" fill="#898989" stroke="#000" stroke-width="2" stroke-miterlimit="10" width="98" height="98"/>
  <g fill="none" stroke-width="2" stroke-miterlimit="10" stroke-dasharray="0 20 20 0">
    <line stroke="#FF9100" x1="50" y1="50" x2="50" y2="2"/>
    <line stroke="#FC8F00" x1="50" y1="50" x2="53" y2="2.1"/>
    <line stroke="#FA8E00" x1="50" y1="50" x2="56" y2="2.4"/>
    <line stroke="#F78D00" x1="50" y1="50" x2="59" y2="2.9"/>
    <line stroke="#F58B00" x1="50" y1="50" x2="61.9" y2="3.5"/>
    <line stroke="#F28A00" x1="50" y1="50" x2="64.8" y2="4.4"/>
    <line stroke="#F08800" x1="50" y1="50" x2="67.7" y2="5.4"/>
    <line stroke="#ED8700" x1="50" y1="50" x2="70.4" y2="6.6"/>
    <line stroke="#EB8500" x1="50" y1="50" x2="73.1" y2="7.9"/>
    <line stroke="#E88400" x1="50" y1="50" x2="75.7" y2="9.5"/>
    <line stroke="#E68300" x1="50" y1="50" x2="78.2" y2="11.2"/>
    <line stroke="#FF9100" x1="50" y1="50" x2="80.6" y2="13"/>
    <line stroke="#FF9100" x1="50" y1="50" x2="82.9" y2="15"/>
    <line stroke="#FF9100" x1="50" y1="50" x2="85" y2="17.1"/>
    <line stroke="#FF9100" x1="50" y1="50" x2="87" y2="19.4"/>
    <line stroke="#FF9100" x1="50" y1="50" x2="88.8" y2="21.8"/>
    <line stroke="#FF9100" x1="50" y1="50" x2="90.5" y2="24.3"/>
    <line stroke="#FF9100" x1="50" y1="50" x2="92.1" y2="26.9"/>
    <line stroke="#FF9100" x1="50" y1="50" x2="93.4" y2="29.6"/>
    <line stroke="#FF9100" x1="50" y1="50" x2="94.6" y2="32.3"/>
    <line stroke="#FF9100" x1="50" y1="50" x2="95.6" y2="35.2"/>
    <line stroke="#FF9100" x1="50" y1="50" x2="96.5" y2="38.1"/>
    <line stroke="#FF9100" x1="50" y1="50" x2="97.1" y2="41"/>
    <line stroke="#FF9100" x1="50" y1="50" x2="97.6" y2="44"/>
    <line stroke="#FF9100" x1="50" y1="50" x2="97.9" y2="47"/>
    <line stroke="#FF9100" x1="50" y1="50" x2="98" y2="50"/>
    <line stroke="#FF9100" x1="50" y1="50" x2="97.9" y2="53"/>
    <line stroke="#FF9100" x1="50" y1="50" x2="97.6" y2="56"/>
    <line stroke="#FF9100" x1="50" y1="50" x2="97.1" y2="59"/>
    <line stroke="#FF9100" x1="50" y1="50" x2="96.5" y2="62"/>
    <line stroke="#FF9100" x1="50" y1="50" x2="95.6" y2="64.8"/>
    <line stroke="#FF9100" x1="50" y1="50" x2="94.6" y2="67.7"/>
    <line stroke="#FF9100" x1="50" y1="50" x2="93.4" y2="70.5"/>
    <line stroke="#FF9100" x1="50" y1="50" x2="92" y2="73.1"/>
    <line stroke="#FF9100" x1="50" y1="50" x2="90.5" y2="75.7"/>
    <line stroke="#FF9100" x1="50" y1="50" x2="88.8" y2="78.2"/>
    <line stroke="#FF9100" x1="50" y1="50" x2="87" y2="80.6"/>
    <line stroke="#FF9100" x1="50" y1="50" x2="85" y2="82.9"/>
    <line stroke="#FF9100" x1="50" y1="50" x2="82.8" y2="85"/>
    <line stroke="#FF9100" x1="50" y1="50" x2="80.6" y2="87"/>
    <line stroke="#FF9100" x1="50" y1="50" x2="78.2" y2="88.8"/>
    <line stroke="#FF9100" x1="50" y1="50" x2="75.7" y2="90.5"/>
    <line stroke="#FF9100" x1="50" y1="50" x2="73.1" y2="92.1"/>
    <line stroke="#FF9100" x1="50" y1="50" x2="70.4" y2="93.4"/>
    <line stroke="#FF9100" x1="50" y1="50" x2="67.6" y2="94.6"/>
    <line stroke="#FF9100" x1="50" y1="50" x2="64.8" y2="95.7"/>
    <line stroke="#FF9100" x1="50" y1="50" x2="61.9" y2="96.5"/>
    <line stroke="#FF9100" x1="50" y1="50" x2="59" y2="97.2"/>
    <line stroke="#FF9100" x1="50" y1="50" x2="56" y2="97.6"/>
    <line stroke="#FF9100" x1="50" y1="50" x2="53" y2="97.9"/>
    <line stroke="#FF9100" x1="50" y1="50" x2="50" y2="98"/>
    <line stroke="#FF9100" x1="50" y1="50" x2="47" y2="97.9"/>
    <line stroke="#FF9100" x1="50" y1="50" x2="43.9" y2="97.6"/>
    <line stroke="#FF9100" x1="50" y1="50" x2="41" y2="97.1"/>
    <line stroke="#FF9100" x1="50" y1="50" x2="38" y2="96.5"/>
    <line stroke="#FF9100" x1="50" y1="50" x2="35.1" y2="95.6"/>
    <line stroke="#FF9100" x1="50" y1="50" x2="32.3" y2="94.6"/>
    <line stroke="#FF9100" x1="50" y1="50" x2="29.5" y2="93.4"/>
    <line stroke="#FF9100" x1="50" y1="50" x2="26.8" y2="92"/>
    <line stroke="#FF9100" x1="50" y1="50" x2="24.2" y2="90.5"/>
    <line stroke="#FF9100" x1="50" y1="50" x2="21.8" y2="88.8"/>
    <line stroke="#FF9100" x1="50" y1="50" x2="19.4" y2="87"/>
    <line stroke="#FF9100" x1="50" y1="50" x2="17.1" y2="85"/>
    <line stroke="#FF9100" x1="50" y1="50" x2="15" y2="82.8"/>
    <line stroke="#FF9100" x1="50" y1="50" x2="13" y2="80.6"/>
    <line stroke="#FF9100" x1="50" y1="50" x2="11.1" y2="78.2"/>
    <line stroke="#FF9100" x1="50" y1="50" x2="9.4" y2="75.7"/>
    <line stroke="#FF9100" x1="50" y1="50" x2="7.9" y2="73.1"/>
    <line stroke="#FF9100" x1="50" y1="50" x2="6.5" y2="70.4"/>
    <line stroke="#FF9100" x1="50" y1="50" x2="5.3" y2="67.6"/>
    <line stroke="#FF9100" x1="50" y1="50" x2="4.3" y2="64.8"/>
    <line stroke="#FF9100" x1="50" y1="50" x2="3.5" y2="61.9"/>
    <line stroke="#FF9100" x1="50" y1="50" x2="2.8" y2="59"/>
    <line stroke="#FF9100" x1="50" y1="50" x2="2.4" y2="56"/>
    <line stroke="#FF9100" x1="50" y1="50" x2="2.1" y2="53"/>
    <line stroke="#FF9100" x1="50" y1="50" x2="2" y2="50"/>
    <line stroke="#FF9100" x1="50" y1="50" x2="2.1" y2="47"/>
    <line stroke="#FF9100" x1="50" y1="50" x2="2.4" y2="43.9"/>
    <line stroke="#FF9100" x1="50" y1="50" x2="2.8" y2="41"/>
    <line stroke="#FF9100" x1="50" y1="50" x2="3.5" y2="38"/>
    <line stroke="#FF9100" x1="50" y1="50" x2="4.3" y2="35.1"/>
    <line stroke="#FF9100" x1="50" y1="50" x2="5.4" y2="32.3"/>
    <line stroke="#FF9100" x1="50" y1="50" x2="6.6" y2="29.5"/>
    <line stroke="#FF9100" x1="50" y1="50" x2="7.9" y2="26.8"/>
    <line stroke="#FF9100" x1="50" y1="50" x2="9.5" y2="24.2"/>
    <line stroke="#FF9100" x1="50" y1="50" x2="11.2" y2="21.8"/>
    <line stroke="#FF9100" x1="50" y1="50" x2="13" y2="19.4"/>
    <line stroke="#FF9100" x1="50" y1="50" x2="15" y2="17.1"/>
    <line stroke="#FF9100" x1="50" y1="50" x2="17.2" y2="15"/>
    <line stroke="#FF9100" x1="50" y1="50" x2="19.4" y2="13"/>
    <line stroke="#FF9100" x1="50" y1="50" x2="21.8" y2="11.1"/>
    <line stroke="#FF9100" x1="50" y1="50" x2="24.3" y2="9.4"/>
    <line stroke="#FF9100" x1="50" y1="50" x2="26.9" y2="7.9"/>
    <line stroke="#FF9100" x1="50" y1="50" x2="29.6" y2="6.5"/>
    <line stroke="#FF9100" x1="50" y1="50" x2="32.4" y2="5.3"/>
    <line stroke="#FF9100" x1="50" y1="50" x2="35.2" y2="4.3"/>
    <line stroke="#FF9100" x1="50" y1="50" x2="38.1" y2="3.5"/>
    <line stroke="#FF9100" x1="50" y1="50" x2="41" y2="2.8"/>
    <line stroke="#FF9100" x1="50" y1="50" x2="44" y2="2.4"/>
    <line stroke="#000" x1="50" y1="50" x2="47" y2="2.1"/>
  </g>
  <line fill="none" stroke="#C1272D" stroke-width="2" stroke-miterlimit="10" x1="50" y1="50" x2="50" y2="2"/>
</svg>