<svg xmlns="http://www.w3.org/2000/svg" width="1920" height="1080">
  <g id="nightScene">

    <!-- <path id="boatShad" stroke="#000" stroke-miterlimit="10" stroke-width="2" d="M1643.6 872.2l-88.6 2.1 11.3 10.4L1973 864l-70-1.4z"/> -->
    <g id="boat-and-reflection">
    <g id="boatReflect">
      <g id="sails_1_">
        <linearGradient id="SVGID_37_" x1="1528.709" x2="1552.8943" y1="881.7832" y2="857.598" gradientTransform="matrix(.7761 .0756 .0903 -.7981 263.9783 1477.082)" gradientUnits="userSpaceOnUse">
          <stop offset="0" stop-color="#e6e6e6"/>
          <stop offset=".1322" stop-color="#e0e0e0"/>
          <stop offset=".3017" stop-color="#d0d0d0"/>
          <stop offset=".4916" stop-color="#b6b6b6"/>
          <stop offset=".6963" stop-color="#919191"/>
          <stop offset=".9106" stop-color="#636363"/>
          <stop offset="1" stop-color="#4d4d4d"/>
        </linearGradient>
        <path fill="url(#SVGID_37_)" d="M1525.5 924.9l40.9-31.4-36.9-4.2"/>
        <linearGradient id="SVGID_38_" x1="1475.5225" x2="1516.3081" y1="864.835" y2="824.0493" gradientTransform="matrix(.7761 .0756 .0903 -.7981 263.9783 1477.082)" gradientUnits="userSpaceOnUse">
          <stop offset="0" stop-color="#e6e6e6"/>
          <stop offset=".1322" stop-color="#e0e0e0"/>
          <stop offset=".3017" stop-color="#d0d0d0"/>
          <stop offset=".4916" stop-color="#b6b6b6"/>
          <stop offset=".6963" stop-color="#919191"/>
          <stop offset=".9106" stop-color="#636363"/>
          <stop offset="1" stop-color="#4d4d4d"/>
        </linearGradient>
        <path fill="url(#SVGID_38_)" d="M1526.2 924.8l3.2-35.5-27.5-3.1-24.6 62.4"/>
      </g>
      <g id="hull_1_" fill="none" stroke-miterlimit="10" stroke-width="3.5808">
        <path stroke="#000" d="M1493.2 893.4c.2-4.6 33.9-6.5 75.2-4.1"/>
        <path stroke="#CCC" d="M1493.3 891.4c.2-4.6 33.9-6.5 75.2-4.1"/>
        <path stroke="#333" d="M1493.4 888.6c.2-4.6 33.9-6.5 75.2-4.1"/>
      </g>
      <desc>end of boat reflect</desc>
    </g>
    <g id="boat">
      <g id="sails">
        <linearGradient id="SVGID_39_" x1="1529.6338" x2="1554.2872" y1="877.8584" y2="853.205" gradientTransform="matrix(.7761 -.0815 .0903 .8606 263.9783 246.2671)" gradientUnits="userSpaceOnUse">
          <stop offset="0" stop-color="#e6e6e6"/>
          <stop offset=".1322" stop-color="#e0e0e0"/>
          <stop offset=".3017" stop-color="#d0d0d0"/>
          <stop offset=".4916" stop-color="#b6b6b6"/>
          <stop offset=".6963" stop-color="#919191"/>
          <stop offset=".9106" stop-color="#636363"/>
          <stop offset="1" stop-color="#4d4d4d"/>
        </linearGradient>
        <path fill="url(#SVGID_39_)" d="M1525.6 838.1l41.8 33.8-37.7 4.5"/>
        <linearGradient id="SVGID_40_" x1="1475.4463" x2="1516.5393" y1="860.6064" y2="819.5135" gradientTransform="matrix(.7761 -.0815 .0903 .8606 263.9783 246.2671)" gradientUnits="userSpaceOnUse">
          <stop offset="0" stop-color="#e6e6e6"/>
          <stop offset=".1322" stop-color="#e0e0e0"/>
          <stop offset=".3017" stop-color="#d0d0d0"/>
          <stop offset=".4916" stop-color="#b6b6b6"/>
          <stop offset=".6963" stop-color="#919191"/>
          <stop offset=".9106" stop-color="#636363"/>
          <stop offset="1" stop-color="#4d4d4d"/>
        </linearGradient>
        <path fill="url(#SVGID_40_)" d="M1526.3 838.2l3.3 38.2-28.2 3.4-25.1-67.2"/>
      </g>
      <g id="hull" fill="none" stroke-miterlimit="10" stroke-width="3.7589">
        <path stroke="#000" d="M1492.6 872c.2 5 34.6 7 76.9 4.5"/>
        <path stroke="#CCC" d="M1492.7 874.2c.2 5 34.6 7 76.9 4.5"/>
        <path stroke="#333" d="M1492.8 877.3c.2 5 34.6 7 76.9 4.5"/>
      </g>
      <desc>end of boat</desc>
    </g>
    <desc>end of boat and boat reflection</desc>
    </g>

    <circle id="blinker" cx="1560.5" cy="874.5" r="2.5" fill="#FF4623"/>
    <circle id="blinker_1_" cx="1560.5" cy="890.5" r="2.5" fill="#FF4623"/>
    <path id="clip-path" fill="#FBB03B" d="M1571 884l-2 7.1-3.8 2.9-38.2 30.5-51 25.6 24.3-56h-8.3v-8s8.1-1 7-1.3c-10-2.7-8-5.7-8-5.7V872l7 .1-22-60 51 24.5 40 35.5s3.4 1 4 2c1.3 2 0 9.9 0 9.9z"/>
    <ellipse id="port-light" cx="1492" cy="870.5" fill="#FF4623" rx="2" ry="1.5"/>
    <ellipse id="port-light" cx="1492" cy="894.5" fill="#FF4623" rx="2" ry="1.5"/>
  </g>
</svg>
