<svg width="100" height="100">
  <line x1="50" x2="50" y1="50" />
  <line x1="50" x2="56.3" y1="50" y2=".4" />
  <line x1="50" x2="62.4" y1="50" y2="1.6" />
  <line x1="50" x2="68.4" y1="50" y2="3.5" />
  <line x1="50" x2="74.1" y1="50" y2="6.2" />
  <line x1="50" x2="79.4" y1="50" y2="9.6" />
  <line x1="50" x2="84.2" y1="50" y2="13.6" />
  <line x1="50" x2="88.5" y1="50" y2="18.1" />
  <line x1="50" x2="92.2" y1="50" y2="23.2" />
  <line x1="50" x2="95.2" y1="50" y2="28.7" />
  <line x1="50" x2="97.5" y1="50" y2="34.6" />
  <line x1="50" x2="99.1" y1="50" y2="40.6" />
  <line x1="50" x2="99.9" y1="50" y2="46.9" />
  <line x1="50" x2="99.9" y1="50" y2="53.2" />
  <line x1="50" x2="99.1" y1="50" y2="59.4" />
  <line x1="50" x2="97.5" y1="50" y2="65.5" />
  <line x1="50" x2="95.2" y1="50" y2="71.3" />
  <line x1="50" x2="92.2" y1="50" y2="76.8" />
  <line x1="50" x2="88.5" y1="50" y2="81.9" />
  <line x1="50" x2="84.2" y1="50" y2="86.5" />
  <line x1="50" x2="79.4" y1="50" y2="90.5" />
  <line x1="50" x2="74.1" y1="50" y2="93.8" />
  <line x1="50" x2="68.4" y1="50" y2="96.5" />
  <line x1="50" x2="62.4" y1="50" y2="98.4" />
  <line x1="50" x2="56.2" y1="50" y2="99.6" />
  <line x1="50" x2="50" y1="50" y2="100" />
  <line x1="50" x2="43.7" y1="50" y2="99.6" />
  <line x1="50" x2="37.5" y1="50" y2="98.4" />
  <line x1="50" x2="31.6" y1="50" y2="96.5" />
  <line x1="50" x2="25.9" y1="50" y2="93.8" />
  <line x1="50" x2="20.6" y1="50" y2="90.4" />
  <line x1="50" x2="15.7" y1="50" y2="86.4" />
  <line x1="50" x2="11.4" y1="50" y2="81.8" />
  <line x1="50" x2="7.8" y1="50" y2="76.8" />
  <line x1="50" x2="4.7" y1="50" y2="71.3" />
  <line x1="50" x2="2.4" y1="50" y2="65.4" />
  <line x1="50" x2=".9" y1="50" y2="59.3" />
  <line x1="50" x2=".1" y1="50" y2="53.1" />
  <line x1="50" x2=".1" y1="50" y2="46.8" />
  <line x1="50" x2=".9" y1="50" y2="40.6" />
  <line x1="50" x2="2.5" y1="50" y2="34.5" />
  <line x1="50" x2="4.8" y1="50" y2="28.7" />
  <line x1="50" x2="7.8" y1="50" y2="23.2" />
  <line x1="50" x2="11.5" y1="50" y2="18.1" />
  <line x1="50" x2="15.8" y1="50" y2="13.5" />
  <line x1="50" x2="20.6" y1="50" y2="9.5" />
  <line x1="50" x2="25.9" y1="50" y2="6.2" />
  <line x1="50" x2="31.6" y1="50" y2="3.5" />
  <line x1="50" x2="37.6" y1="50" y2="1.6" />
  <line x1="50" x2="43.8" y1="50" y2=".4" />
</svg>
