<svg id="Layer_1" viewBox="0 0 400 400">

<style>
#poly-1 {
  transform-origin: 5% 50%;
  transform: rotate(0deg);
  fill: #aaa;
}

#poly-2 {
  transform-origin: 15% 50%;
  transform: rotate(0deg);
  fill: #f08;
}

#poly-3 {
  transform-origin: 25% 50%;
  transform: rotate(0deg);
  fill: #f08;
}

#poly-4 {
  transform-origin: 35% 50%;
  transform: rotate(0deg);
  fill: #f08;
}

#poly-5 {
  transform-origin: 5% 60%;
  transform: rotate(0deg);
  fill: #aa134f;
}

#poly-6 {
  transform-origin: 15% 60%;
  transform: rotate(0deg);
  fill: #35a;
}

#poly-7 {
  transform-origin: 25% 60%;
  transform: rotate(0deg);
  fill: #da7;
}

#poly-8 {
  fill: #77aeff;
  transform-origin: 35% 60%;
  transform: rotate(0deg);
}

#poly-9 {
  transform-origin: 5% 5%;
  transform: rotate(0deg);
  fill: #f23223;
}

#poly-10 {
  fill: #f23cc3;
  transform-origin: 15% 5%;
  transform: rotate(0deg);
}

#poly-11 {
  transform-origin: 25% 5%;
  transform: rotate(0deg);
  fill: #33ffca;
}

#poly-12 {
  transform-origin: 35% 5%;
  transform: rotate(0deg);
  fill: #cacaca;
}

#poly-13 {
  transform-origin: 5% 15%;
  transform: rotate(0deg);
  fill: #33ffca;
}

#poly-14 {
  transform-origin: 50% 50%;
  transform: rotate(0deg);
}

#poly-15 {
  transform-origin: 50% 50%;
  transform: rotate(0deg);
}

#poly-16 {
  transform-origin: 50% 50%;
  transform: rotate(0deg);
}

#poly-17 {
  transform-origin: 50% 50%;
  transform: rotate(0deg);
}

#poly-18 {
  transform-origin: 50% 50%;
  transform: rotate(0deg);
}

#poly-19 {
  transform-origin: 50% 50%;
  transform: rotate(0deg);
}

#poly-20 {
  transform-origin: 50% 50%;
  transform: rotate(0deg);
}

#poly-21 {
  transform-origin: 50% 50%;
  transform: rotate(0deg);
}

#poly-22 {
  transform-origin: 50% 50%;
  transform: rotate(0deg);
}

#poly-23 {
  transform-origin: 50% 50%;
  transform: rotate(0deg);
}

#poly-24 {
  transform-origin: 50% 50%;
  transform: rotate(0deg);
}

#poly-25 {
  transform-origin: 50% 50%;
  transform: rotate(0deg);
}

#poly-26 {
  transform-origin: 50% 50%;
  transform: rotate(0deg);
}

#poly-27 {
  transform-origin: 50% 50%;
  transform: rotate(0deg);
}

#poly-28 {
  transform-origin: 50% 50%;
  transform: rotate(0deg);
}

#poly-29 {
  transform-origin: 50% 50%;
  transform: rotate(0deg);
}

#poly-30 {
  transform-origin: 50% 50%;
  transform: rotate(0deg);
}

#poly-31 {
  transform-origin: 50% 50%;
  transform: rotate(0deg);
}

#poly-32 {
  transform-origin: 50% 50%;
  transform: rotate(0deg);
}

#poly-33 {
  transform-origin: 50% 50%;
  transform: rotate(0deg);
}

#poly-34 {
  transform-origin: 50% 50%;
  transform: rotate(0deg);
}

#poly-35 {
  transform-origin: 50% 50%;
  transform: rotate(0deg);
}

#poly-36 {
  transform-origin: 50% 50%;
  transform: rotate(0deg);
}

#poly-37 {
  transform-origin: 50% 50%;
  transform: rotate(0deg);
}

#poly-38 {
  transform-origin: 50% 50%;
  transform: rotate(0deg);
}

#poly-39 {
  transform-origin: 50% 50%;
  transform: rotate(0deg);
}

#poly-40 {
  transform-origin: 50% 50%;
  transform: rotate(0deg);
}

#poly-41 {
  transform-origin: 50% 50%;
  transform: rotate(0deg);
}

#poly-42 {
  transform-origin: 50% 50%;
  transform: rotate(0deg);
}

#poly-43 {
  transform-origin: 50% 50%;
  transform: rotate(0deg);
}

#poly-44 {
  transform-origin: 50% 50%;
  transform: rotate(0deg);
}

#poly-45 {
  transform-origin: 50% 50%;
  transform: rotate(0deg);
}

#poly-46 {
  transform-origin: 50% 50%;
  transform: rotate(0deg);
}

#poly-47 {
  transform-origin: 50% 50%;
  transform: rotate(0deg);
}

#poly-48 {
  transform-origin: 50% 50%;
  transform: rotate(0deg);
}

#poly-49 {
  transform-origin: 50% 50%;
  transform: rotate(0deg);
}

#poly-50 {
  transform-origin: 50% 50%;
  transform: rotate(0deg);
}

#poly-51 {
  transform-origin: 50% 50%;
  transform: rotate(0deg);
}

#poly-52 {
  transform-origin: 50% 50%;
  transform: rotate(0deg);
}

#poly-53 {
  transform-origin: 50% 50%;
  transform: rotate(0deg);
}

#poly-54 {
  transform-origin: 50% 50%;
  transform: rotate(0deg);
}

#poly-55 {
  transform-origin: 50% 50%;
  transform: rotate(0deg);
}

#poly-56 {
  transform-origin: 50% 50%;
  transform: rotate(0deg);
}

#poly-57 {
  transform-origin: 50% 50%;
  transform: rotate(0deg);
}

#poly-58 {
  transform-origin: 50% 50%;
  transform: rotate(0deg);
}

#poly-59 {
  transform-origin: 50% 50%;
  transform: rotate(0deg);
}

#poly-60 {
  transform-origin: 50% 50%;
  transform: rotate(0deg);
}

#poly-61 {
  transform-origin: 50% 50%;
  transform: rotate(0deg);
}

#poly-62 {
  transform-origin: 50% 50%;
  transform: rotate(0deg);
}

#poly-63 {
  transform-origin: 50% 50%;
  transform: rotate(0deg);
}

#poly-64 {
  transform-origin: 50% 50%;
  transform: rotate(0deg);
}

#poly-65 {
  transform-origin: 50% 50%;
  transform: rotate(0deg);
}

#poly-66 {
  transform-origin: 50% 50%;
  transform: rotate(0deg);
}

#poly-67 {
  transform-origin: 50% 50%;
  transform: rotate(0deg);
}

#poly-68 {
  transform-origin: 50% 50%;
  transform: rotate(0deg);
}

#poly-69 {
  transform-origin: 50% 50%;
  transform: rotate(0deg);
}

#poly-70 {
  transform-origin: 50% 50%;
  transform: rotate(0deg);
}

#poly-71 {
  transform-origin: 50% 50%;
  transform: rotate(0deg);
}

#poly-72 {
  transform-origin: 50% 50%;
  transform: rotate(0deg);
}

#poly-73 {
  transform-origin: 50% 50%;
  transform: rotate(0deg);
}

#poly-74 {
  transform-origin: 50% 50%;
  transform: rotate(0deg);
}

#poly-75 {
  transform-origin: 50% 50%;
  transform: rotate(0deg);
}

#poly-76 {
  transform-origin: 50% 50%;
  transform: rotate(0deg);
}

#poly-77 {
  transform-origin: 50% 50%;
  transform: rotate(0deg);
}

#poly-78 {
  transform-origin: 50% 50%;
  transform: rotate(0deg);
}

#poly-79 {
  transform-origin: 50% 50%;
  transform: rotate(0deg);
}

#poly-80 {
  transform-origin: 50% 50%;
  transform: rotate(0deg);
}

#poly-81 {
  transform-origin: 50% 50%;
  transform: rotate(0deg);
}

#poly-82 {
  transform-origin: 50% 50%;
  transform: rotate(0deg);
}

#poly-83 {
  transform-origin: 50% 50%;
  transform: rotate(0deg);
}

#poly-84 {
  transform-origin: 50% 50%;
  transform: rotate(0deg);
}

#poly-85 {
  transform-origin: 50% 50%;
  transform: rotate(0deg);
}

#poly-86 {
  transform-origin: 50% 50%;
  transform: rotate(0deg);
}

#poly-87 {
  transform-origin: 50% 50%;
  transform: rotate(0deg);
}

#poly-88 {
  transform-origin: 50% 50%;
  transform: rotate(0deg);
}

#poly-89 {
  transform-origin: 50% 50%;
  transform: rotate(0deg);
}

#poly-90 {
  transform-origin: 5% 80%;
  transform: rotate(0deg);
    fill: tan;

}

#poly-91 {
  transform-origin: 05% 95%;
  transform: rotate(0deg);
  fill: blue;
}

#poly-92 {
  transform-origin: 15% 95%;
  transform: rotate(0deg);
  fill: blue;
}

#poly-93 {
  transform-origin: 25% 95%;
  transform: rotate(0deg);
  fill: blue;
}

#poly-94 {
  transform-origin: 35% 95%;
  transform: rotate(0deg);
  fill: blue;
}

#poly-95 {
  transform-origin: 45% 95%;
  transform: rotate(0deg);
  fill: blue;

}

#poly-96 {
  transform-origin: 55% 95%;
  transform: rotate(0deg);
  fill: red;

}

#poly-97 {
  transform-origin: 65% 95%;
  transform: rotate(0deg);
  fill: red;
}

#poly-98 {
  transform-origin: 75% 95%;
  transform: rotate(0deg);
  fill: red;

}

#poly-99 {
  transform-origin: 85% 95%;
  transform: rotate(0deg);
  fill: red;}

#poly-100 {
  transform-origin: 95% 95%;
  transform: rotate(0deg);
  fill: red;
}

#poly-101 {
  transform-origin: 75% 100%;
  fill: #33ffca;
  transform: rotate(0deg);
}

#poly-102 {
  transform: rotate(0deg);
  transform-origin: 65% 100%;
  fill: #33ffca;
}

#poly-103 {
  transform-origin: 95% 100%;
  transform: rotate(0deg);
  fill: #33ffca;
}

#poly-104 {
  transform-origin: 85% 100%;
  transform: rotate(0deg);
  fill: #33ffca;
}

#poly-105 {
  transform-origin: 55% 100%;
  transform: rotate(0deg);
  fill: #33ffca;
}

#poly-106 {
  transform-origin: 45% 100%;
  transform: rotate(0deg);
  fill: #33ffca;
}

#poly-107 {
  transform-origin: 35% 100%;
  transform: rotate(0deg);
  fill: #33ffca;
}

#poly-108 {
  transform-origin: 25% 100%;
  transform: rotate(0deg);
  fill: #33ffca;
}

#poly-109 {
  transform-origin: 15% 100%;
  transform: rotate(0deg);
  fill: #33ffca;
}

#poly-110 {
  transform-origin: 5% 100%;
  transform: rotate(0deg);
  fill: #33ffca;
}

</styles>










  <polygon id="poly-1" fill="#666" points="0 240 0 160 40 200"/>
  <polygon id="poly-2" fill="#666" points="40 240 40 160 80 200"/>
  <polygon id="poly-3" fill="#666" points="80 240 80 160 120 200"/>
  <polygon id="poly-4" fill="#666" points="120 240 120 160 160 200"/>
  <polygon id="poly-5" fill="#666" points="0 320 0 240 40 280"/>
  <polygon id="poly-6" fill="#666" points="40 320 40 240 80 280"/>
  <polygon id="poly-7" fill="#666" points="80 320 80 240 120 280"/>
  <polygon id="poly-8" fill="#666" points="120 320 120 240 160 280"/>
  <polygon id="poly-9" fill="#666" points="0 80 0 0 40 40"/>
  <polygon id="poly-10" fill="#666" points="40 80 40 0 80 40"/>
  <polygon id="poly-11" fill="#666" points="80 80 80 0 120 40"/>
  <polygon id="poly-12" fill="#666" points="120 80 120 0 160 40"/>
  <polygon id="poly-13" fill="#666" points="0 160 0 80 40 120"/>
  <polygon id="poly-14" fill="#666" points="40 160 40 80 80 120"/>
  <polygon id="poly-15" fill="#666" points="80 160 80 80 120 120"/>
  <polygon id="poly-16" fill="#666" points="120 160 120 80 160 120"/>
  <polygon id="poly-17" fill="#666" points="160 240 160 160 200 200"/>
  <polygon id="poly-18" fill="#666" points="200 240 200 160 240 200"/>
  <polygon id="poly-19" fill="#666" points="240 240 240 160 280 200"/>
  <polygon id="poly-20" fill="#666" points="280 240 280 160 320 200"/>
  <polygon id="poly-21" fill="#666" points="160 320 160 240 200 280"/>
  <polygon id="poly-22" fill="#666" points="200 320 200 240 240 280"/>
  <polygon id="poly-23" fill="#666" points="240 320 240 240 280 280"/>
  <polygon id="poly-24" fill="#666" points="280 320 280 240 320 280"/>
  <polygon id="poly-25" fill="#666" points="160 80 160 0 200 40"/>
  <polygon id="poly-26" fill="#666" points="200 80 200 0 240 40"/>
  <polygon id="poly-27" fill="#666" points="240 80 240 0 280 40"/>
  <polygon id="poly-28" fill="#666" points="280 80 280 0 320 40"/>
  <polygon id="poly-29" fill="#666" points="160 160 160 80 200 120"/>
  <polygon id="poly-30" fill="#666" points="200 160 200 80 240 120"/>
  <polygon id="poly-31" fill="#666" points="240 160 240 80 280 120"/>
  <polygon id="poly-32" fill="#666" points="280 160 280 80 320 120"/>
  <polygon id="poly-33" fill="#1A1A1A" points="320 40 320 120 280 80"/>
  <polygon id="poly-34" fill="#1A1A1A" points="280 40 280 120 240 80"/>
  <polygon id="poly-35" fill="#1A1A1A" points="240 40 240 120 200 80"/>
  <polygon id="poly-36" fill="#1A1A1A" points="200 40 200 120 160 80"/>
  <polygon id="poly-37" fill="#1A1A1A" points="320 -40 320 40 280 0"/>
  <polygon id="poly-38" fill="#1A1A1A" points="280 -40 280 40 240 0"/>
  <polygon id="poly-39" fill="#1A1A1A" points="240 -40 240 40 200 0"/>
  <polygon id="poly-40" fill="#1A1A1A" points="200 -40 200 40 160 0"/>
  <polygon id="poly-41" fill="#1A1A1A" points="320 200 320 280 280 240"/>
  <polygon id="poly-42" fill="#1A1A1A" points="280 200 280 280 240 240"/>
  <polygon id="poly-43" fill="#1A1A1A" points="240 200 240 280 200 240"/>
  <polygon id="poly-44" fill="#1A1A1A" points="200 200 200 280 160 240"/>
  <polygon id="poly-45" fill="#1A1A1A" points="320 120 320 200 280 160"/>
  <polygon id="poly-46" fill="#1A1A1A" points="280 120 280 200 240 160"/>
  <polygon id="poly-47" fill="#666" points="320 240 320 160 360 200"/>
  <polygon id="poly-48" fill="#666" points="360 240 360 160 400 200"/>
  <polygon id="poly-49" fill="#666" points="320 320 320 240 360 280"/>
  <polygon id="poly-50" fill="#666" points="360 320 360 240 400 280"/>
  <polygon id="poly-51" fill="#666" points="320 80 320 0 360 40"/>
  <polygon id="poly-52" fill="#666" points="360 80 360 0 400 40"/>
  <polygon id="poly-53" fill="#666" points="320 160 320 80 360 120"/>
  <polygon id="poly-54" fill="#666" points="360 160 360 80 400 120"/>
  <polygon id="poly-55" fill="#1A1A1A" points="400 40 400 120 360 80"/>
  <polygon id="poly-56" fill="#1A1A1A" points="360 40 360 120 320 80"/>
  <polygon id="poly-57" fill="#1A1A1A" points="400 -40 400 40 360 0"/>
  <polygon id="poly-58" fill="#1A1A1A" points="360 -40 360 40 320 0"/>
  <polygon id="poly-59" fill="#1A1A1A" points="400 200 400 280 360 240"/>
  <polygon id="poly-60" fill="#1A1A1A" points="360 200 360 280 320 240"/>
  <polygon id="poly-61" fill="#1A1A1A" points="400 120 400 200 360 160"/>
  <polygon id="poly-62" fill="#1A1A1A" points="360 120 360 200 320 160"/>
  <polygon id="poly-63" fill="#1A1A1A" points="240 120 240 200 200 160"/>
  <polygon id="poly-64" fill="#1A1A1A" points="200 120 200 200 160 160"/>
  <polygon id="poly-65" fill="#1A1A1A" points="160 40 160 120 120 80"/>
  <polygon id="poly-66" fill="#1A1A1A" points="120 40 120 120 80 80"/>
  <polygon id="poly-67" fill="#1A1A1A" points="80 40 80 120 40 80"/>
  <polygon id="poly-68" fill="#1A1A1A" points="40 40 40 120 0 80"/>
  <polygon id="poly-69" fill="#1A1A1A" points="160 -40 160 40 120 0"/>
  <polygon id="poly-70" fill="#1A1A1A" points="120 -40 120 40 80 0"/>
  <polygon id="poly-71" fill="#1A1A1A" points="80 -40 80 40 40 0"/>
  <polygon id="poly-72" fill="#1A1A1A" points="40 -40 40 40 0 0"/>
  <polygon id="poly-73" fill="#1A1A1A" points="160 200 160 280 120 240"/>
  <polygon id="poly-74" fill="#1A1A1A" points="120 200 120 280 80 240"/>
  <polygon id="poly-75" fill="#1A1A1A" points="80 200 80 280 40 240"/>
  <polygon id="poly-76" fill="#1A1A1A" points="40 200 40 280 0 240"/>
  <polygon id="poly-77" fill="#1A1A1A" points="160 120 160 200 120 160"/>
  <polygon id="poly-78" fill="#1A1A1A" points="120 120 120 200 80 160"/>
  <polygon id="poly-79" fill="#1A1A1A" points="80 120 80 200 40 160"/>
  <polygon id="poly-80" fill="#1A1A1A" points="40 120 40 200 0 160"/>
  <polygon id="poly-81" fill="#1A1A1A" points="320 280 320 360 280 320"/>
  <polygon id="poly-82" fill="#1A1A1A" points="280 280 280 360 240 320"/>
  <polygon id="poly-83" fill="#1A1A1A" points="400 280 400 360 360 320"/>
  <polygon id="poly-84" fill="#1A1A1A" points="360 280 360 360 320 320"/>
  <polygon id="poly-85" fill="#1A1A1A" points="240 280 240 360 200 320"/>
  <polygon id="poly-86" fill="#1A1A1A" points="200 280 200 360 160 320"/>
  <polygon id="poly-87" fill="#1A1A1A" points="160 280 160 360 120 320"/>
  <polygon id="poly-88" fill="#1A1A1A" points="120 280 120 360 80 320"/>
  <polygon id="poly-89" fill="#1A1A1A" points="80 280 80 360 40 320"/>
  <polygon id="poly-90" fill="#1A1A1A" points="40 280 40 360 0 320"/>
  <polygon id="poly-91" fill="#666" points="0 400 0 320 40 360"/>
  <polygon id="poly-92" fill="#666" points="40 400 40 320 80 360"/>
  <polygon id="poly-93" fill="#666" points="80 400 80 320 120 360"/>
  <polygon id="poly-94" fill="#666" points="120 400 120 320 160 360"/>
  <polygon id="poly-95" fill="#666" points="160 400 160 320 200 360"/>
  <polygon id="poly-96" fill="#666" points="200 400 200 320 240 360"/>
  <polygon id="poly-97" fill="#666" points="240 400 240 320 280 360"/>
  <polygon id="poly-98" fill="#666" points="280 400 280 320 320 360"/>
  <polygon id="poly-99" fill="#666" points="320 400 320 320 360 360"/>
  <polygon id="poly-100" fill="#666" points="360 400 360 320 400 360"/>
  <polygon id="poly-101" fill="#1A1A1A" points="320 360 320 440 280 400"/>
  <polygon id="poly-102" fill="#1A1A1A" points="280 360 280 440 240 400"/>
  <polygon id="poly-103" fill="#1A1A1A" points="400 360 400 440 360 400"/>
  <polygon id="poly-104" fill="#1A1A1A" points="360 360 360 440 320 400"/>
  <polygon id="poly-105" fill="#1A1A1A" points="240 360 240 440 200 400"/>
  <polygon id="poly-106" fill="#1A1A1A" points="200 360 200 440 160 400"/>
  <polygon id="poly-107" fill="#1A1A1A" points="160 360 160 440 120 400"/>
  <polygon id="poly-108" fill="#1A1A1A" points="120 360 120 440 80 400"/>
  <polygon id="poly-109" fill="#1A1A1A" points="80 360 80 440 40 400"/>
  <polygon id="poly-110" fill="#1A1A1A" points="40 360 40 440 0 400"/>
</svg>
