<svg viewBox="0 0 530 60">
  <g id="SOCICONS">
    <path id="bg" fill="#757575" d="M0 0h530v60H0z"/>
    
    
    
    
    
    
    <g id="instaGroup">
      <linearGradient id="instaBG_1_" x1="465.001" x2="515.0008" y1="55.001" y2="5.0011" gradientUnits="userSpaceOnUse">
        <stop offset="0" stop-color="#faba64"/>
        <stop offset=".1964" stop-color="#f37636"/>
        <stop offset=".4396" stop-color="#bd327d"/>
        <stop offset=".683" stop-color="#a43a90"/>
        <stop offset=".9992" stop-color="#5a5bc6"/>
      </linearGradient>

      <path className="instaBG" fill="url(#instaBG_1_)" d="M460 10h60v40h-60z"/>
      <path className="instaIcon" fill="#FFF" d="M476.1 43.9V15H505v28.9h-28.9zm14.5-27.8h-13c-.4 0-.4 0-.4.4v26c0 .4 0 .4.4.4h26c.4 0 .4 0 .4-.4V16.6c0-.4 0-.4-.4-.4-4.4-.1-8.7-.1-13-.1z"/>
      <path className="instaIcon" fill="#FFF" d="M490.5 21.5c1.3 0 2.5 0 3.7.1 2.3.1 3.9 1.7 4.2 3.9.1.9.1 1.7.1 2.6v3.8c0 .7-.1 1.3-.2 2-.3 1.9-1.7 3.2-3.6 3.5-.5.1-.9.1-1.4.1h-5.8c-.7 0-1.4-.1-2.1-.3-1.6-.5-2.5-1.7-2.7-3.3-.1-.7-.2-1.4-.2-2.2v-4.4c0-.8 0-1.5.2-2.3.4-2 2-3.3 4-3.4 1.3-.1 2.5-.1 3.8-.1zm0 1.4h-1.8c-.6 0-1.2 0-1.8.1-1.7.1-2.8 1.2-2.9 2.9 0 .7-.1 1.3-.1 2 0 1.8 0 3.6.1 5.4.1 1.5 1 2.5 2.5 2.8.5.1 1.1.1 1.6.1h5.8c.9 0 1.8-.3 2.4-1.1.5-.7.7-1.4.7-2.2v-5.2c0-.6 0-1.2-.1-1.8-.2-1.7-1.2-2.7-2.9-2.8-1.1-.2-2.3-.2-3.5-.2z"/>
      <path className="instaIcon" fill="#FFF" d="M490.5 25.4c2.3 0 4.1 1.8 4.1 4.1 0 2.2-1.9 4.1-4.1 4.1-2.2 0-4.1-1.9-4.1-4.1 0-2.3 1.8-4.1 4.1-4.1zm-2.7 4.1c0 1.5 1.2 2.7 2.6 2.7 1.5 0 2.7-1.2 2.7-2.7 0-1.5-1.2-2.7-2.6-2.7-1.5 0-2.7 1.2-2.7 2.7zm7-3.4c-.5 0-1-.4-.9-.9 0-.5.4-.9.9-.9s.9.4.9.9-.4.9-.9.9z" />
      <path className="instacover" fill="#FA55FF" d=""/>
      <path className="instatxt" d=""/>
    </g>






<!-- 
    <g id="gmailGroup_2_">
      <path id="gmailBG" fill="#FFF" d="M370 10h60v40h-60z"/>
      <g id="gmailIcon_4_" fill-rule="evenodd" clip-rule="evenodd">
        <path fill="#E94537" d="M383.9 23.5c2.8-4.5 7.3-7.1 13.3-7.8 4.9-.6 9.4.4 13.4 3 .8.5.8.8.1 1.4-1.2.9-2.3 1.9-3.5 2.8-.4.3-.6.5-1.2.2-6.8-3.4-12.8-1.9-16.4 4.1-2-1.3-3.9-2.5-5.7-3.7z"/>
        <path fill="#36A855" d="M411.2 41c-3.2 2.6-7.2 3.5-11.5 3.5-6.8 0-11.9-2.5-15.5-7.2-.2-.3-.3-.6-.5-.9 1.9-1.2 3.8-2.3 5.7-3.5 1.5 2.9 4 5 7.9 5.7 3 .5 5.8.1 8.4-1.2 1.9 1.2 3.7 2.4 5.5 3.6z"/>
        <path fill="#4385F3" d="M411.2 41c-1.8-1.2-3.6-2.3-5.5-3.5 1.4-1 2.6-2 3.2-3.5.3-.8.2-1.1-.9-1.1-2.4.1-4.9 0-7.3 0-.9 0-1.2-.2-1.2-1 .1-1.3.1-2.5 0-3.8 0-.6.2-.9 1.1-.9h14.7c.6 0 .9.1 1.1.6 1.4 4-1.2 10.6-5.2 13.2z"/>
        <path fill="#FABC08" d="M389.5 32.9c-1.9 1.2-3.8 2.3-5.7 3.5-2.7-4.3-2.6-8.6 0-12.9 1.9 1.2 3.8 2.4 5.7 3.7-.6 1.9-.6 3.8 0 5.7z"/>
      </g>
      <path id="gmailcover" fill="#FA55FF" d="M370 10h60v40h-60z"/>
      <path id="gmailtxt" fill-rule="evenodd" d="M411.4 40.5c-3.2 2.6-7.2 3.5-11.5 3.5-6.8 0-11.9-2.5-15.5-7.2-.2-.3-.3-.6-.4-.9-2.7-4.3-2.6-8.6 0-12.9 2.8-4.5 7.3-7.1 13.3-7.8 5-.6 9.4.4 13.4 3 .8.5.8.8.1 1.4-1.2.9-2.3 1.9-3.5 2.8-.4.3-.6.5-1.2.2-6.8-3.4-12.8-1.9-16.4 4.1-.6 1.9-.6 3.8 0 5.8 1.5 2.9 4 5 7.9 5.7 3 .5 5.8.1 8.4-1.2 1.4-1 2.5-2 3.2-3.5.3-.8.2-1.1-.9-1.1H401c-.9 0-1.2-.2-1.2-1 .1-1.2.1-2.5 0-3.8 0-.7.2-.9 1.1-.9h14.7c.6 0 .9.1 1.1.6 1.3 4-1.3 10.6-5.3 13.2z" clip-rule="evenodd"/>
    </g> -->



    <!-- <g id="linkedingroup">
      <path id="linkedinBG" fill="#0077B5" d="M280 10h60v40h-60z"/>
      <path id="linkedinicon" fill="#FFF" d="M299.2 22.3h-6.7V18h6.7v4.3zm-6.7 2.1h6.7V42h-6.7V24.4zm32.5 1c1.7 1 2.5 2.5 2.5 4.7V42h-6.8V31.3c0-.9-.2-1.6-.5-2.1-.6-.9-1.9-1.4-3.7-1.4-2.2 0-3.8.7-4.6 2-.4.7-.6 1.6-.6 2.7V42h-6.6V24.4h6.4V27c.8-.9 1.6-1.6 2.4-2 1.4-.7 3.1-1.1 5.1-1.1 2.6 0 4.8.5 6.4 1.5z"/>
      <path id="linkedincover" fill="#FA55FF" d="M280 10h60v40h-60z"/>
      <path id="linkedintxt" d="M300.7 22.3H294V18h6.7v4.3zm-6.7 2.1h6.7V42H294V24.4zm32.5 1c1.7 1 2.5 2.5 2.5 4.7V42h-6.8V31.3c0-.9-.2-1.6-.5-2.1-.6-.9-1.9-1.4-3.7-1.4-2.2 0-3.8.7-4.6 2-.4.7-.6 1.6-.6 2.7V42h-6.6V24.4h6.4V27c.8-.9 1.6-1.6 2.4-2 1.4-.7 3.1-1.1 5.1-1.1 2.6 0 4.8.5 6.4 1.5z"/>
    </g> -->

    <!-- <g id="gitgroup">
      <path id="gitbg" fill="#FFF" d="M190 10h60v40h-60z"/>
      <g id="githubicon">
        <path fill="#FEFEFE" d="M219.7 46.7h-19.4c-.2 0-.2 0-.2-.2V14.3c0-.2 0-.2.2-.2h38.9c.2 0 .2 0 .2.2v32.2c0 .2 0 .2-.2.2h-19.5zm-2.2-.8c.6 0 1.2.1 1.9.1h.5c.6 0 1.2-.1 1.8-.1.2 0 .4 0 .5-.1.6-.1 1.2-.1 1.8-.2.4-.1.9-.1 1.3-.2 1.4-.3 2.8-.7 3.9-1.6.5-.4 1-1 .8-1.7-.1-.6-.6-1-1.1-1.3-1.5-1-3.2-1.3-4.9-1.6v-3.4c0-.4-.1-.8-.1-1.2-.1-.2-.1-.5-.2-.6-.3-.5-.7-.9-1.1-1.4 1-.2 2-.3 2.9-.5 1.8-.5 3.3-1.4 4.1-3.2 0-.1.2-.1.2-.1 2.7.1 5.3.4 7.9 1.1h.2c-.1 0-.1-.1-.2-.1-.9-.2-1.8-.5-2.7-.6-1.7-.2-3.4-.4-5.1-.5-.1 0-.2 0-.2-.1-.1-.1.2-.6.4-.6 2.6-.1 5.1 0 7.6.5h.2c-.1 0-.1-.1-.2-.1-1-.1-2-.3-3-.4-1.5-.1-3.1-.1-4.6-.1-.1 0-.2-.1-.2-.1l.3-2.4c.2-2.3-.2-4.4-1.9-6.1 0 0-.1-.2 0-.2.3-1.1.3-2.2-.1-3.2-.3-1.1-.1-1-1.4-.8-1.2.2-2.3.9-3.3 1.5-.1.1-.2.1-.3.1-2.7-.6-5.3-.6-7.9.1-.1 0-.2 0-.3-.1-.7-.4-1.4-.8-2.2-1.2-.7-.3-1.4-.5-2.2-.5-.1 0-.3.1-.3.2-.5 1.4-.7 2.8-.2 4.3 0 .1 0 .2-.1.3-.4.7-.9 1.3-1.2 2-.8 2-.5 4 0 6 .1.3.1.4-.3.4-2.4-.1-4.8 0-7.2.5-.1 0-.2.1-.3.1h.3c2.3-.4 4.7-.5 7.1-.5.4 0 .6.2.7.5l-.1.2c-.4 0-.9 0-1.3.1-2.2.1-4.3.5-6.4 1-.1 0-.1.1-.2.1h.2c2.5-.7 5.1-1 7.8-1.1.1 0 .2.1.3.2.5.5.8 1.1 1.3 1.6 1.6 1.4 3.6 1.8 5.7 2.1-.2.2-.4.5-.7.7-.2.5-.4.9-.6 1.4l-.1.1c-.1 0-.2.1-.2.1-1.2.5-2.4.5-3.5-.5-.3-.3-.6-.7-.8-1-.6-.9-1.4-1.5-2.5-1.5-.2 0-.4.2-.6.3.1.2.2.4.4.5 1 .4 1.6 1.2 2.1 2.1 1.1 2 3.1 2.4 5.1 2h.1v2.6c-1.5.3-2.9.6-4.2 1.3-.3.2-.6.3-.8.6-1 .9-1 2 .1 2.8.8.6 1.8 1.1 2.8 1.3 1.3.3 2.6.5 3.8.7.3-.6.5-.6.7-.6zm-9.9-12.1c.1.1.1.2.2.3h.3c.1-.1.1-.2.1-.3l-.3-.9v-.1.1c-.1.2-.2.5-.3.9z"/>
        <path fill="#212020" d="M216.6 32.5c-2.1-.2-4.1-.7-5.7-2.1-.5-.4-.9-1.1-1.3-1.6-.1-.1-.2-.2-.3-.2-2.6.1-5.2.4-7.8 1.1h-.2c.1 0 .1-.1.2-.1 2.1-.6 4.3-.9 6.4-1 .4 0 .9 0 1.3-.1 0 0 .1-.1.1-.2-.1-.4-.3-.5-.7-.5-2.4 0-4.7.1-7.1.5h-.3c.1 0 .2-.1.3-.1 2.4-.4 4.8-.6 7.2-.5.3 0 .3-.1.3-.4-.5-2-.8-4 0-6 .3-.7.8-1.3 1.2-2 .1-.1.1-.2.1-.3-.5-1.5-.3-2.9.2-4.3 0-.1.2-.1.3-.2.8 0 1.5.2 2.2.5.7.4 1.4.8 2.2 1.2.1.1.2.1.3.1 2.6-.7 5.3-.7 7.9-.1.1 0 .2 0 .3-.1 1-.7 2.1-1.3 3.3-1.5 1.3-.2 1.1-.2 1.4.8.3 1.1.3 2.2.1 3.2v.2c1.7 1.7 2.1 3.8 1.9 6.1l-.3 2.4s.1.1.2.1c1.5 0 3.1 0 4.6.1 1 .1 2 .3 3 .4.1 0 .1.1.2.1h-.2c-2.5-.5-5.1-.6-7.6-.5-.2 0-.5.5-.4.6 0 0 .1 0 .2.1 1.7.2 3.4.3 5.1.5.9.1 1.8.4 2.7.6.1 0 .1.1.2.1h-.2c-2.6-.7-5.2-1-7.9-1.1-.1 0-.2 0-.2.1-.8 1.8-2.3 2.7-4.1 3.2-1 .3-1.9.4-2.9.5h-1c-1.8.4-3.5.4-5.2.4zm-5.3-6.3c-.2 2.7 1 4.4 3.7 5 1.2.3 2.4.4 3.5.4 1.9.1 3.8.1 5.7-.3 1.5-.3 2.8-1.1 3.2-2.7.2-.8.2-1.6.3-2.4-.1-1.2-1.2-2.7-2.4-3-1.2-.4-2.4-.2-3.6-.1h-3.6c-1.2 0-2.4-.1-3.6 0-1.6.1-3 1.6-3.2 3.1zm4 8.4c.2-.5.4-.9.6-1.4.7-.1 1.4-.3 2.1-.3h3.2c1 .1 1.8.5 2.4 1.4l.3.3c0 .4.1.8.1 1.2v3.7c-.1 1 .1 1.8 1.1 2.2.1 0 .1.3.2.5 0 0-.1 0-.1.1h-.1c-.6-.1-1.1-.2-1.7-.2-.7-.3-1.2-.9-1.2-1.7v-3.8c0-.4-.2-.9-.4-1.3l-.1-.1v6.5c0 .5.2 1 .7 1.3.2.3.1.5-.2.7h-.2l-1.5-.6c-.5-.4-.7-1-.7-1.7V35c0-.1-.2-.2-.2-.3-.1.1-.2.2-.2.3v6.4c0 .7-.2 1.2-.7 1.7l-1.5.6h-.3c-.3-.2-.3-.4-.1-.7.4-.2.6-.6.6-1v-6.7s-.1 0-.1.1c-.1.2-.3.4-.3.6-.1 1.1-.1 2.1-.1 3.2v1c0 .9-.3 1.6-1.2 2-.5.1-1.1.2-1.6.2-.1 0-.3-.1-.3-.2s.1-.3.2-.4c.1-.1.2-.1.3-.1.5-.2.9-.6.9-1.2v-4c.1-.8.1-1.4.1-1.9z" clip-rule="evenodd"/>
        <path fill="#93D2EE" d="M216.9 42.8c-.2.4-.2.5.1.7v2.3c-1.3-.2-2.6-.4-3.8-.7-1-.2-2-.7-2.8-1.3-1.1-.8-1.2-1.9-.1-2.8.3-.2.5-.4.8-.6 1.3-.7 2.7-1.1 4.2-1.3v1.1c-.1.6-.4 1-.9 1.2-.1 0-.2.1-.3.1-.1.1-.2.3-.2.4 0 .1.2.2.3.2.5-.1 1.1-.2 1.6-.2.2.1.4.3.7.4.1.2.2.4.4.5z" clip-rule="evenodd"/>
        <path fill="#9AD9F0" d="M225.3 42.1c-.1-.2-.1-.4-.2-.5-1-.4-1.2-1.3-1.1-2.2v-.3c1.7.3 3.4.7 4.9 1.6.5.3.9.7 1.1 1.3.2.8-.2 1.3-.8 1.7-1.1.9-2.5 1.3-3.9 1.6-.4.1-.9.2-1.3.2v-1.8c0-.7.3-1.2 1-1.5.1 0 .1-.1.2-.2 0 .2 0 .2.1.1z" clip-rule="evenodd"/>
        <path fill="#232323" d="M215.1 36.6c-2 .5-3.9.1-5.1-2-.5-.9-1.1-1.7-2.1-2.1-.2-.1-.3-.3-.4-.5.2-.1.4-.3.6-.3 1.1 0 1.9.6 2.5 1.5.2.4.5.7.8 1 1 1 2.2.9 3.5.5.1 0 .2-.1.2-.1l-.4.4s-.1.1 0 .1c0 0 .1 0 .1.1.1.1.2.1.2.2.1.4.1.8.1 1.2zm-3.7-2.2c-.2-.1-.3-.2-.5-.3 0 0-.2.2-.1.2l.3.3s.2-.1.3-.2zm1.4.7l-.3.3c.1.1.2.2.3.2.1 0 .2-.1.3-.2 0-.1-.1-.2-.3-.3zm-1-.4c-.1.1-.2.2-.2.3.1.1.2.2.4.3l.2-.2c-.2-.1-.3-.2-.4-.4zm2 1.1c.1 0 .1-.1.2-.1.1-.1.2-.2.3-.2-.1-.1-.2-.2-.3-.2-.1 0-.2.1-.3.2 0 0 .1.1.1.3zm-3.7-2.3c.2.1.3.2.4.3 0 0 .2-.1.2-.2l-.3-.3c-.1 0-.2.1-.3.2z" clip-rule="evenodd"/>
        <path fill="#7AB8E7" d="M225.2 42.2l-.2.2c-.6.3-.9.8-1 1.5v1.8c-.6.1-1.2.1-1.8.2v-2.1c0-.1 0-.2-.1-.3.3-.1.4-.4.2-.7l.6-.6c.1-.1.3-.2.4-.3.7.1 1.3.2 1.9.3z" clip-rule="evenodd"/>
        <path fill="#99D3E8" d="M218.7 42.9c.5-.5.7-1 .7-1.7v-2.5h.5v2.5c0 .7.2 1.2.7 1.7l-.3.6c-.4.8-.2 1.7-.3 2.5h-.5v-1.1c-.2-.7-.3-1.4-.8-2z" clip-rule="evenodd"/>
        <path fill="#7AB8E7" d="M219.9 46c0-.8-.1-1.7.3-2.5l.3-.6 1.5.6c-.3.8-.2 1.6-.2 2.4-.7.1-1.3.1-1.9.1zm-1.2-3.1c.5.6.6 1.2.6 2V46c-.6 0-1.2-.1-1.9-.1v-.3c0-.7.1-1.4-.2-2.1l1.5-.6z" clip-rule="evenodd"/>
        <path fill="#030303" d="M223.9 34.6l-.3-.3c-.5-.9-1.4-1.3-2.4-1.4-1.1-.1-2.1-.1-3.2 0-.7 0-1.4.2-2.1.3.2-.2.4-.5.7-.7h6.1c.4.5.7.9 1.1 1.4 0 .2 0 .4.1.7z" clip-rule="evenodd"/>
        <path fill="#9AD9F0" d="M217.3 43.6c.3.7.2 1.4.2 2.1v.3h-.5v-2.3c.1-.2.2-.1.3-.1zm4.4 2.4c0-.8-.1-1.6.2-2.4h.2c0 .1.1.2.1.3V46c-.1-.1-.3-.1-.5 0zm-14.1-12.2c.1-.4.2-.7.3-1v-.1.1l.3.9c0 .1 0 .3-.1.3-.1.1-.2.1-.3 0l-.2-.2z" clip-rule="evenodd"/>
        <path fill="#0B0E0F" d="M215.1 36.6v-1.2c0-.1-.1-.2-.2-.2 0 0-.1 0-.1-.1V35c.1-.1.2-.3.4-.4l.1-.1c0 .6-.1 1.2-.1 1.7 0 .2 0 .3-.1.4.1 0 0 0 0 0z" clip-rule="evenodd"/>
        <path fill="#F4C9AE" d="M227.7 26.2c-.1.8-.1 1.7-.3 2.4-.4 1.6-1.7 2.4-3.2 2.7-1.9.4-3.8.4-5.7.3-1.2 0-2.4-.2-3.5-.4-2.7-.6-3.9-2.3-3.7-5 0-.1.1-.1.1-.2.6-1.4 1.4-2.5 3-2.6 1.2-.1 2.3 0 3.5.1 1.4.1 2.8 0 4.2-.1.9-.1 1.8-.1 2.7 0 1.5.2 2.3 1.3 2.7 2.6l.2.2zm-10.9.7c-.1-.5-.2-.9-.4-1.4-.2-.6-.7-1.1-1.4-1.1-.6 0-1.1.4-1.4.9-.6 1.1-.5 2.5.2 3.5.4.6 1.2.7 1.8.3 1-.5 1.2-1.3 1.2-2.2zm9.3 0c-.2-.5-.3-1.1-.5-1.5-.5-1-1.7-1.2-2.3-.4-.9 1-.9 2.8-.1 3.9.6.7 1.4.8 2.1.1.5-.6.6-1.3.8-2.1zm-6.6 4c.5 0 .8-.2 1-.6V30c-.1 0-.2.1-.2.1-.4.6-1 .6-1.4 0 0-.1-.1-.1-.2-.1 0 .1-.1.2 0 .2 0 .4.4.7.8.7zm.5-1.7c0-.4-.2-.6-.4-.6s-.4.2-.4.4c-.1.3.2.5.4.4.1.1.3-.1.4-.2z" clip-rule="evenodd"/>
        <path fill="#C39A83" d="M227.7 26.2c0-.1-.1-.1-.1-.2-.5-1.3-1.3-2.4-2.7-2.6-.9-.1-1.8-.1-2.7 0-1.4.1-2.8.2-4.2.1-1.2-.1-2.3-.2-3.5-.1-1.6.1-2.5 1.2-3 2.6 0 .1-.1.1-.1.2.2-1.6 1.6-3.1 3.2-3.2 1.2-.1 2.4 0 3.6 0h3.6c1.2 0 2.4-.2 3.6.1 1.1.5 2.2 1.9 2.3 3.1z" clip-rule="evenodd"/>
        <path fill="#99D8EF" d="M223.4 42c-.1.1-.3.2-.4.3l-.6.6c-.5-.3-.7-.8-.7-1.3v-2.7h.5v1.3c.1.9.5 1.4 1.2 1.8zm-6.5.8l-.4-.4c-.2-.2-.4-.3-.7-.4.9-.4 1.2-1.1 1.2-2v-1h.5v2.9c0 .4-.2.7-.6.9z" clip-rule="evenodd"/>
        <path fill="#FEFEFE" d="M219.8 38.8h-.5v-3.9c0-.1.1-.2.2-.3.1.1.2.2.2.3.1 1.2.1 2.6.1 3.9z" clip-rule="evenodd"/>
        <path fill="#FDFDFD" d="M217.5 38.9h-.5c0-1.1 0-2.1.1-3.2 0-.2.2-.4.3-.6l.1-.1v3.9zm4.8 0h-.5v-3.8s.1 0 .1.1c.1.4.3.9.4 1.3v2.4z" clip-rule="evenodd"/>
        <path fill="#7AB8E7" d="M225.3 42.1zm-.1.1z" clip-rule="evenodd"/>
        <path fill="#99D3E8" d="M211.4 34.4c-.2.1-.3.2-.3.2l-.3-.3.1-.2c.2.1.3.2.5.3zm1.4.7l.3.3c-.1.1-.2.2-.3.2-.1 0-.2-.1-.3-.2.2-.1.2-.2.3-.3zm-1-.4c.1.2.2.3.3.4l-.2.2c-.1-.1-.2-.2-.4-.3.1-.1.2-.1.3-.3zm2 1.1c0-.1-.1-.3-.1-.4 0-.1.2-.2.3-.2.1 0 .2.1.3.2-.1.1-.2.2-.3.2 0 .1-.1.1-.2.2zm-3.7-2.3l.2-.2.3.3s-.1.2-.2.2l-.3-.3z" clip-rule="evenodd"/>
        <path fill="#FDFCFC" d="M216.8 26.9c-.1.9-.3 1.7-1 2.2-.6.4-1.4.3-1.8-.3-.8-1-.9-2.4-.2-3.5.3-.5.7-.9 1.4-.9s1.1.5 1.4 1.1c.1.5.1.9.2 1.4zm-2.7 0h-.1c.2.4.3.9.6 1.2.3.5.9.5 1.3.1.7-.6.7-2.1 0-2.7-.4-.4-.9-.4-1.3 0-.4.5-.5.9-.5 1.4zm12 0c-.1.8-.3 1.5-.8 2-.7.7-1.5.6-2.1-.1-.8-1-.8-2.9.1-3.9.7-.8 1.8-.6 2.3.4.2.5.3 1.1.5 1.6zm-3.3 0c.2.5.3.9.5 1.3.4.6 1 .6 1.5 0 .6-.7.5-1.9 0-2.6-.4-.5-1-.5-1.4 0-.3.4-.4.9-.6 1.3z" clip-rule="evenodd"/>
        <path fill="#AE5E51" d="M219.5 30.9c-.4 0-.8-.3-.9-.6v-.2c.1 0 .2.1.2.1.4.6 1 .6 1.4 0 0-.1.1-.1.2-.1 0 .1.1.2 0 .3-.1.3-.4.5-.9.5zm.5-1.7c-.1.1-.3.3-.4.3-.3 0-.5-.2-.4-.4 0-.2.2-.4.4-.4.2-.1.4.1.4.5zm-5.9-2.3c0-.5.1-1 .5-1.3.4-.4.9-.4 1.3 0 .7.7.7 2.1 0 2.7-.4.4-1 .4-1.3-.1-.3-.4-.4-.8-.6-1.2 0 0 .1 0 .1-.1zm.6-1.2c-.2.2-.3.4-.3.5 0 .1.2.2.3.3.1-.1.3-.2.3-.3.1-.1-.1-.2-.3-.5zm8.1 1.2c.2-.4.3-.9.6-1.3.4-.5 1-.4 1.4 0 .6.7.6 1.9 0 2.6-.4.5-1.1.5-1.5 0-.2-.4-.3-.8-.5-1.3zm1.3-.7c-.2-.1-.3-.3-.4-.3-.1 0-.3.2-.3.3 0 .1.2.3.3.3.1 0 .2-.2.4-.3z" clip-rule="evenodd"/>
        <path fill="#FDFCFC" d="M214.7 25.7c.2.2.3.4.3.5 0 .1-.2.2-.3.3-.1-.1-.3-.2-.3-.3 0-.1.2-.2.3-.5zm9.4.5c-.2.1-.3.3-.4.3-.1 0-.3-.2-.3-.3 0-.1.2-.3.3-.3.1 0 .2.2.4.3z" clip-rule="evenodd"/>
      </g>
      <path id="githubcover" fill="#FA55FF" d="M190 10h60v40h-60z"/>
      <path id="gittxt_1_" d="M219.5 33.1v-3.4h14.8v10.2c0 1-1 1.2-2 1.8-2.1 1.2-4.3 2.1-6.7 2.7-4.6 1.1-9.7.9-14.1-.8-8.9-3.3-11.3-12.5-8.3-19.7 1.5-3.5 4.3-6.4 8.5-7.8 4.3-1.5 9.7-1.7 14.1-.4 4.4 1.3 6.8 4.1 8 7.8-.3.3-2.2.5-2.7.6-.4.1-.9.2-1.4.3-.2 0-.9-1.9-1.1-2.2-2.1-3.6-7.1-4.5-11.5-4-4.6.5-8 3-9.4 6.6-1.4 3.6-1.4 8.1.7 11.5 2 3.3 6.3 5 10.6 5.2 2.4.1 4.8-.4 7-1.1.9-.3 3.8-1.2 3.8-2.1v-2.8c0-.3.3-2.1 0-2.3-.2-.1-1.3 0-1.5 0h-3.7c-1.6-.1-3.4-.1-5.1-.1z"/>
    </g>

 -->



    <g id="codepengroup">
      <path id="codepenBG" fill="#FFF" d="M100 10h60v40h-60z"/>
      <path id="codepenicon" fill-rule="evenodd" d="M111.6 30.1v-4.2c0-.9.3-1.5 1.2-2 5-3 10.1-6.1 15.1-9.1.9-.6 1.7-.5 2.6.1 5 3 9.9 6 14.9 9 .9.5 1.2 1.2 1.2 2.1v8.3c0 1-.4 1.6-1.2 2.1-5 3-10 6-14.9 9-1 .6-1.8.5-2.8-.1-4.9-3-9.8-6-14.7-8.9-1-.6-1.4-1.3-1.3-2.3 0-1.2-.1-2.6-.1-4zm16.1-11.9c-4.2 2.5-7.9 4.8-11.9 7.2 2 1.2 3.6 2.2 5.3 3.2 1.9-1.2 3.9-2.3 5.8-3.5.4-.3.7-.8.8-1.3v-5.6zm14.7 7.2c-4-2.4-7.8-4.7-11.9-7.2v5.7c0 .4.4.9.7 1.1 1.9 1.2 3.8 2.4 5.8 3.6 1.9-1.1 3.5-2.1 5.4-3.2zm-14.7 16.9c0-2.2.1-3.9 0-5.6 0-.4-.4-1-.8-1.3-1.9-1.2-3.8-2.4-5.8-3.6-1.8 1.1-3.4 2.1-5.3 3.2 4 2.5 7.7 4.7 11.9 7.3zm2.9 0c4.2-2.5 7.9-4.8 11.9-7.2-2-1.2-3.7-2.2-5.3-3.2-2 1.2-3.8 2.3-5.6 3.4-.7.4-1 .9-1 1.6v5.4zm3.7-12.2c-1.6-1-3-1.8-4.3-2.7-.5-.3-1-.5-1.6-.1-1.5.9-3 1.8-4.7 2.9 2 1.1 3.7 2.1 5.4 3.1 1.7-1 3.3-2 5.2-3.2zm-19.6 2.3c1.3-.8 2.4-1.4 3.7-2.2-1.3-.8-2.4-1.4-3.7-2.2v4.4zm28.8-4.4c-1.4.8-2.4 1.5-3.8 2.3 1.5.6 2.4 1.7 3.8 1.9V28z" clip-rule="evenodd"/>
      <path id="codepencover" fill="#FA55FF" d="M100 10h60v40h-60z"/>
      <path id="codepentxt" fill-rule="evenodd" d="M131.6 15c3.7-.1 7 1.1 9.8 3.4 1.1.9 2.3 2 1.1 3.6-1.2 1.5-2.5.7-3.7-.2-4.2-3.1-9.1-3.4-13.1-.9-3.7 2.3-5.4 6.9-4.5 11.6 1.5 7.1 9.6 10.6 16.1 6.8.6-.3 1.1-.7 1.6-1.1 1.2-1 2.7-1.7 3.6 0 .4.8-.3 2.6-1 3.3-4.9 4.4-12.7 4.8-18.2 1.2-5.5-3.6-7.9-10.6-6-17.2 1.9-6.4 7.6-10.5 14.3-10.5z" clip-rule="evenodd"/>
    </g>
    <g id="twitterGroup">
      <path id="twitterBG" fill="#FFF" d="M10 10h60v40H10z"/>
      <path id="twitterIcon" fill="#1DA1F2" fill-rule="evenodd" d="M58 21.1c-1 1-2 1.9-3.2 2.7-.3.2-.3.5-.3.8-.1 2.4-.6 4.8-1.8 7-3.1 5.7-8.3 9.3-15.8 10.2-4.6.5-9.1 0-13.2-2-.2-.1-.5-.2-.7-.6 3.7.2 7.1-.5 10.1-2.3-.4-.2-.7-.2-1.1-.3-2.3-.5-4-1.6-5-3.4-.3-.6-.3-.7.5-.7.6 0 1.2.1 1.8-.1 0-.2-.3-.2-.4-.3-2.8-1-4.4-2.7-4.8-5.2-.1-.6 0-.6.7-.4.7.2 1.5.4 2.4.5-1.1-.8-2-1.6-2.5-2.7-.7-1.6-.7-3.1.1-4.7.3-.6.4-.6.9-.2 1.6 1.4 3.3 2.7 5.4 3.6 2.4 1.1 5 1.8 7.8 2.1 1 .1 1.1.1 1-.8-.3-3.4 2.6-5.8 5.6-6.4 2.3-.4 4.3-.1 6.1 1.2.6.4 1.2.5 2 .3.9-.3 1.8-.6 2.6-.9.2-.1.4-.2.6-.1.2.2 0 .4-.1.5-.5.8-1.2 1.5-2 2.1l-.3.3c1.3 0 2.3-.6 3.5-.6.1.3.1.4.1.4z" clip-rule="evenodd"/>
      <path id="twitterCover" fill="#FA55FF" d="M10 10h60v40H10z"/>
      <path d="M32.1 24.9H27v-4.3h5.1V16l10.2-2v6.6h12v4.3h-12v10c0 1.6.5 2.8 1.5 3.5 1 .7 2.7 1 5.1 1s4.7-.4 6.9-1.1v4.9c-2.4.6-5.8.8-10.2.8-4.4 0-7.7-.6-10-1.9-2.3-1.3-3.5-3.1-3.5-5.5V24.9z"/>
    </g>
  </g>
</svg>